{"glyphs":{":":{"x_min":0,"x_max":307,"ha":307,"o":"m 153 148 q 187 148 210 125 q 233 102 233 68 q 233 35 210 12 q 186 -12 153 -12 q 120 -12 97 12 q 73 36 73 69 q 73 102 96 125 q 120 148 153 148 z m 153 559 q 187 559 210 535 q 233 512 233 478 q 233 445 210 422 q 186 398 153 398 q 120 398 97 422 q 73 446 73 479 q 73 512 96 535 q 120 558 153 559 z"},"$":{"x_min":0,"x_max":713,"ha":713,"o":"m 401 409 l 418 407 q 541 396 604 353 q 638 330 657 291 q 676 252 676 208 q 676 141 637 91 q 599 41 525 15 q 464 -7 401 -10 l 401 -42 q 401 -57 408 -65 q 415 -73 432 -78 l 432 -93 l 296 -93 l 296 -78 q 314 -73 321 -65 q 328 -57 328 -42 l 328 -10 q 209 -1 88 60 q 77 65 71 65 q 64 65 51 54 l 37 61 l 109 225 l 123 218 q 123 213 123 211 q 123 185 154 164 q 186 142 235 125 q 284 108 328 104 l 328 271 q 256 278 221 286 q 185 293 154 309 q 109 332 84 375 q 61 415 61 466 q 61 560 133 617 q 204 674 328 678 l 328 702 q 328 717 321 725 q 314 732 296 737 l 296 753 l 433 753 l 433 737 q 415 732 408 725 q 401 717 401 702 l 401 676 q 447 672 495 658 q 543 644 619 612 q 632 606 639 606 q 649 606 663 618 l 677 610 l 597 454 l 583 461 q 584 465 584 469 q 584 494 521 526 q 458 557 401 562 z m 328 417 l 328 564 q 288 561 261 552 q 231 542 213 523 q 196 503 196 480 q 196 463 208 449 q 220 436 241 430 q 271 421 328 417 z m 401 263 l 401 104 q 449 109 479 124 q 535 151 535 198 q 535 214 525 227 q 515 241 500 246 q 472 256 401 263 z"},"?":{"x_min":0,"x_max":488,"ha":488,"o":"m 104 479 l 20 602 l 33 610 q 47 603 53 603 q 64 603 95 623 q 141 653 177 666 q 213 678 254 678 q 322 678 367 646 q 428 604 428 530 q 428 492 409 457 q 389 421 341 375 q 308 342 298 323 q 288 304 288 274 q 288 261 294 255 q 300 250 316 245 l 316 229 l 156 229 l 156 245 q 175 251 182 261 q 188 271 193 306 q 199 337 208 356 q 218 374 248 412 q 275 446 285 465 q 294 484 294 504 q 294 536 274 555 q 253 575 218 575 q 167 575 130 538 q 113 520 113 504 q 113 499 117 487 z m 244 148 q 278 148 301 125 q 324 102 324 68 q 324 35 301 12 q 277 -12 244 -12 q 211 -12 188 12 q 164 36 164 69 q 164 102 187 125 q 210 148 244 148 z"},"<":{"x_min":0,"x_max":500,"ha":500,"o":"m 466 618 l 466 477 l 183 333 l 466 189 l 466 49 l 33 274 l 33 393 z"},"'":{"x_min":0,"x_max":278,"ha":278,"o":"m 197 392 l 197 378 l 82 378 l 82 392 q 100 397 105 403 q 109 409 109 428 q 109 436 108 444 l 76 614 q 72 638 68 644 q 64 649 47 652 l 47 667 l 231 667 l 231 652 q 214 649 210 644 q 206 638 203 614 l 170 444 q 169 437 169 427 q 169 409 174 403 q 178 397 197 392 z"},"=":{"x_min":0,"x_max":767,"ha":767,"o":"m 114 368 l 114 526 l 129 526 q 133 508 140 501 q 147 495 161 495 l 605 495 q 619 495 626 501 q 633 508 638 526 l 652 526 l 652 368 l 638 368 q 633 385 626 392 q 619 399 605 399 l 161 399 q 147 399 140 392 q 133 385 128 368 z m 114 141 l 114 299 l 129 299 q 133 282 140 275 q 147 268 161 268 l 605 268 q 619 268 626 275 q 633 281 638 299 l 652 299 l 652 141 l 638 141 q 633 159 626 166 q 619 172 605 172 l 161 172 q 147 172 140 166 q 133 159 128 141 z"},"a":{"x_min":0,"x_max":694,"ha":694,"o":"m 462 137 l 211 137 l 183 77 q 172 56 172 43 q 172 20 204 14 l 204 0 l 2 0 l 2 14 q 21 17 30 25 q 39 33 51 58 l 251 462 q 262 485 262 502 q 262 522 235 533 l 235 547 l 447 547 l 447 533 q 420 522 420 500 q 420 484 433 460 l 640 68 q 657 36 667 27 q 676 17 696 13 l 696 0 l 473 0 l 473 13 q 505 19 505 43 q 505 58 493 81 z m 423 213 l 333 389 l 249 213 z"},"L":{"x_min":0,"x_max":708,"ha":708,"o":"m 237 110 l 646 110 q 662 110 669 117 q 677 124 682 141 l 698 141 l 698 -31 l 682 -31 q 677 -14 669 -7 q 662 0 646 0 l 60 0 l 60 16 q 78 21 84 28 q 91 36 91 51 l 91 615 q 91 630 84 638 q 78 646 60 651 l 60 667 l 268 667 l 268 651 q 250 646 244 638 q 237 630 237 615 z"},"3":{"x_min":0,"x_max":713,"ha":713,"o":"m 562 350 q 673 308 673 202 q 673 94 578 38 q 494 -12 369 -12 q 235 -12 127 41 q 82 62 68 62 q 56 62 35 44 l 21 52 l 99 232 l 114 226 q 111 220 111 215 q 111 189 138 167 q 173 139 237 120 q 302 102 367 102 q 428 102 472 122 q 528 147 528 202 q 528 249 488 272 q 449 296 372 296 q 325 296 307 290 q 289 283 284 263 l 269 263 l 269 426 l 284 426 q 290 404 306 398 q 322 391 368 391 q 440 391 479 417 q 513 438 513 479 q 513 520 475 542 q 438 565 368 565 q 269 565 194 521 q 158 500 158 477 q 158 467 165 455 l 152 445 l 40 583 l 52 593 q 70 584 79 584 q 89 584 105 596 q 228 678 379 678 q 485 678 557 637 q 599 613 622 575 q 646 535 646 486 q 646 399 562 350 z"},";":{"x_min":0,"x_max":307,"ha":307,"o":"m 96 -122 q 136 -96 154 -71 q 171 -46 179 -6 q 155 -12 145 -12 q 112 -12 93 11 q 73 33 73 69 q 73 105 93 127 q 113 148 146 148 q 189 148 213 112 q 233 80 233 34 q 233 -73 120 -153 z m 153 559 q 187 559 210 535 q 233 512 233 478 q 233 445 210 422 q 186 398 153 398 q 120 398 97 422 q 73 446 73 479 q 73 512 96 535 q 120 558 153 559 z"},"J":{"x_min":0,"x_max":604,"ha":604,"o":"m 3 25 l 65 194 l 80 189 q 80 183 80 179 q 80 159 104 142 q 131 125 175 113 q 219 102 260 102 q 325 102 355 131 q 370 146 375 167 q 381 188 381 230 l 381 615 q 381 630 374 638 q 367 646 350 651 l 350 667 l 558 667 l 558 651 q 540 646 533 638 q 526 630 526 615 l 526 223 q 526 126 500 83 q 471 38 416 13 q 360 -12 286 -12 q 243 -12 212 -6 q 181 0 110 21 q 66 33 47 33 q 31 33 18 20 z"},"V":{"x_min":0,"x_max":770,"ha":770,"o":"m 389 193 l 566 585 q 577 610 577 624 q 577 645 545 651 l 545 667 l 773 667 l 773 651 q 751 648 743 639 q 735 629 714 585 l 483 86 q 469 55 469 45 q 469 20 500 16 l 500 0 l 270 0 l 270 16 q 301 20 301 45 q 301 55 286 86 l 55 585 q 35 629 26 639 q 18 648 -3 651 l -3 667 l 233 667 l 233 651 q 201 645 201 624 q 201 610 212 585 z"},"\"":{"x_min":0,"x_max":555,"ha":555,"o":"m 197 392 l 197 378 l 82 378 l 82 392 q 100 397 105 403 q 109 409 109 428 q 109 436 108 444 l 76 614 q 72 638 68 644 q 64 649 47 652 l 47 667 l 231 667 l 231 652 q 214 649 210 644 q 206 638 203 614 l 170 444 q 169 437 169 427 q 169 409 174 403 q 178 397 197 392 z m 474 392 l 474 378 l 359 378 l 359 392 q 377 397 382 403 q 387 409 387 428 q 387 437 385 444 l 353 614 q 350 638 345 644 q 341 649 324 652 l 324 667 l 509 667 l 509 652 q 492 649 488 644 q 483 638 480 614 l 448 444 q 446 437 446 427 q 446 409 451 403 q 456 397 474 392 z"},"7":{"x_min":0,"x_max":713,"ha":713,"o":"m 508 557 l 93 557 q 78 557 70 550 q 62 543 57 526 l 42 526 l 42 698 l 57 698 q 62 680 70 673 q 78 667 93 667 l 620 667 q 635 667 643 673 q 651 680 656 698 l 671 698 l 671 571 l 372 77 q 354 48 354 40 q 354 25 381 16 l 381 0 l 143 0 l 143 16 q 164 21 177 34 q 191 47 210 77 z"},"S":{"x_min":0,"x_max":720,"ha":720,"o":"m 680 610 l 601 454 l 587 461 q 587 466 587 469 q 587 486 559 505 q 472 565 355 565 q 303 565 264 553 q 235 543 217 523 q 199 504 199 481 q 199 443 245 430 q 268 423 345 415 l 422 407 q 490 400 532 387 q 575 375 607 352 q 641 328 660 289 q 679 250 679 205 q 679 135 634 80 q 593 30 506 6 q 442 -12 368 -12 q 236 -12 107 52 q 80 64 74 64 q 68 64 54 54 l 40 61 l 112 225 l 126 218 q 126 213 126 211 q 126 189 147 171 q 179 143 246 122 q 312 102 372 102 q 437 102 482 124 q 508 136 523 156 q 538 176 538 198 q 538 231 502 246 q 478 255 402 264 l 327 271 q 251 279 220 286 q 188 293 157 309 q 113 331 87 375 q 64 415 64 466 q 64 550 123 605 q 199 678 351 678 q 415 678 470 665 q 525 652 608 618 q 636 606 643 606 q 653 606 667 618 z"},"}":{"x_min":0,"x_max":333,"ha":333,"o":"m 7 -84 l 7 52 l 20 52 q 25 33 33 26 q 42 20 62 20 l 102 20 q 156 25 155 90 l 155 263 q 155 286 164 300 q 172 315 196 333 q 172 352 164 367 q 155 381 155 403 l 155 577 q 156 642 102 647 l 62 647 q 42 647 33 641 q 25 634 20 615 l 7 615 l 7 751 l 20 751 q 25 733 33 727 q 42 720 62 720 l 176 720 q 206 720 232 700 q 264 676 264 645 l 264 462 q 265 408 270 393 q 275 378 294 378 l 324 378 q 335 378 341 385 q 346 392 350 410 l 362 410 l 362 257 l 350 257 q 346 275 341 282 q 335 289 324 289 l 294 289 q 275 289 270 274 q 265 259 264 204 l 264 22 q 264 -6 237 -30 q 209 -53 176 -53 l 62 -53 q 42 -53 33 -60 q 25 -66 20 -84 z"},"Z":{"x_min":0,"x_max":714,"ha":714,"o":"m 276 110 l 623 110 q 638 110 646 117 q 653 124 658 141 l 674 141 l 674 -31 l 658 -31 q 653 -14 646 -7 q 638 0 623 0 l 40 0 l 40 34 l 428 557 l 94 557 q 79 557 71 550 q 63 543 59 526 l 43 526 l 43 698 l 59 698 q 64 680 72 673 q 79 667 94 667 l 668 667 l 668 639 z"},"x":{"x_min":0,"x_max":635,"ha":635,"o":"m 390 283 l 552 69 q 573 41 591 29 q 609 16 632 13 l 632 0 l 380 0 l 380 13 q 411 20 411 39 q 411 49 395 70 l 306 187 l 217 70 q 204 53 204 41 q 204 23 235 13 l 235 0 l 2 0 l 2 13 q 26 19 39 29 q 52 39 76 69 l 237 277 l 95 467 q 50 527 15 533 l 15 547 l 265 547 l 265 533 q 233 524 233 504 q 233 492 249 471 l 323 372 l 391 465 q 411 492 411 504 q 411 526 379 533 l 379 547 l 617 547 l 617 533 q 591 528 578 518 q 566 508 534 467 z"},")":{"x_min":0,"x_max":333,"ha":333,"o":"m 62 747 q 125 702 171 634 q 268 496 268 333 q 268 210 212 99 q 157 -12 62 -80 l 8 -36 q 63 29 90 85 q 137 187 137 333 q 137 453 107 537 q 78 621 8 702 z"},"&":{"x_min":0,"x_max":773,"ha":773,"o":"m 747 459 l 747 274 l 731 274 q 729 298 717 298 q 706 298 685 284 q 663 270 647 252 q 618 220 607 183 q 637 152 659 139 q 682 126 705 126 q 727 126 731 150 l 747 150 l 747 -4 q 733 -1 661 3 q 633 5 592 29 q 551 53 521 85 q 422 -12 286 -12 q 179 -12 109 39 q 29 96 29 190 q 29 315 178 388 q 112 446 112 514 q 112 594 188 641 q 250 678 330 678 q 420 678 487 633 q 553 589 553 511 q 553 468 534 438 q 515 407 465 372 q 516 339 543 279 q 590 360 635 400 q 680 440 747 459 z m 333 579 q 296 579 269 561 q 233 538 233 495 q 233 458 261 435 q 290 411 333 411 q 371 411 399 429 q 435 453 435 494 q 435 531 407 555 q 379 578 333 579 z m 299 328 q 244 328 204 296 q 165 265 165 217 q 165 167 203 134 q 242 102 303 102 q 365 102 409 133 q 453 164 453 207 q 453 227 440 251 q 426 275 406 291 q 361 328 299 328 z"},"_":{"x_min":0,"x_max":500,"ha":500,"o":"m 0 -58 l 500 -58 l 500 -143 l 0 -143 z"},"v":{"x_min":0,"x_max":650,"ha":650,"o":"m 329 173 l 461 462 q 473 487 473 500 q 473 524 441 533 l 441 547 l 653 547 l 653 533 q 633 527 625 518 q 616 508 602 479 l 411 77 q 400 55 400 44 q 400 20 433 13 l 433 0 l 218 0 l 218 13 q 250 20 250 44 q 250 55 240 77 l 48 479 q 35 509 26 518 q 18 527 -2 533 l -2 547 l 217 547 l 217 533 q 186 523 186 500 q 186 489 198 462 z"},"O":{"x_min":0,"x_max":855,"ha":855,"o":"m 426 678 q 601 678 703 584 q 811 485 811 329 q 811 233 759 150 q 658 -12 427 -12 q 254 -12 152 83 q 98 133 69 203 q 44 265 44 333 q 44 434 96 517 q 194 675 426 678 z m 427 565 q 332 565 268 509 q 193 442 193 333 q 193 225 268 158 q 332 102 428 102 q 524 102 587 158 q 625 192 645 241 q 662 284 662 331 q 662 444 587 509 q 523 564 427 565 z"},"(":{"x_min":0,"x_max":333,"ha":333,"o":"m 271 747 l 325 702 q 270 638 244 581 q 196 480 196 333 q 196 214 226 130 q 255 46 325 -36 l 271 -80 q 208 -35 162 32 q 65 171 65 333 q 65 456 121 567 q 177 679 271 747 z"},"C":{"x_min":0,"x_max":839,"ha":839,"o":"m 706 229 l 799 90 l 786 81 q 772 94 764 94 q 755 94 714 70 q 630 22 573 5 q 516 -12 437 -12 q 279 -12 178 63 q 118 106 84 171 q 44 245 44 333 q 44 455 115 544 q 222 678 437 678 q 516 678 573 662 q 629 645 714 596 q 755 573 764 573 q 772 573 786 586 l 799 577 l 706 438 l 693 447 q 694 455 694 460 q 694 474 682 487 q 669 499 638 517 q 552 565 455 565 q 341 565 273 508 q 193 441 193 333 q 193 226 273 159 q 341 102 455 102 q 552 102 638 150 q 669 168 682 180 q 694 193 694 207 q 694 212 693 220 z"},"W":{"x_min":0,"x_max":1128,"ha":1128,"o":"m 565 469 l 413 84 q 399 55 399 47 q 399 25 436 16 l 436 0 l 221 0 l 221 16 q 254 22 254 49 q 254 56 240 92 l 49 584 q 35 621 24 634 q 12 646 -10 651 l -10 667 l 222 667 l 222 651 q 191 644 191 622 q 191 611 199 590 l 331 237 l 473 592 q 482 615 482 622 q 482 645 450 651 l 450 667 l 692 667 l 692 651 q 659 642 659 619 q 659 611 667 590 l 803 236 l 934 584 q 944 610 944 623 q 944 644 909 651 l 909 667 l 1138 667 l 1138 651 q 1114 644 1104 633 q 1095 623 1080 584 l 889 92 q 875 57 875 45 q 875 21 910 16 l 910 0 l 693 0 l 693 16 q 727 21 727 48 q 727 58 712 92 z"},"A":{"x_min":0,"x_max":813,"ha":813,"o":"m 548 170 l 246 170 l 201 76 q 191 57 191 45 q 191 24 224 16 l 224 0 l 3 0 l 3 16 q 23 20 33 29 q 43 39 57 67 l 302 580 q 313 604 313 619 q 313 641 285 651 l 285 667 l 521 667 l 521 651 q 493 643 493 622 q 493 608 502 590 l 756 76 q 772 43 784 31 q 796 20 817 16 l 817 0 l 572 0 l 572 16 q 604 21 604 46 q 604 56 594 76 z m 506 261 l 398 499 l 289 261 z"},"f":{"x_min":0,"x_max":609,"ha":609,"o":"m 210 232 l 210 50 q 210 35 217 27 q 224 19 241 13 l 241 0 l 48 0 l 48 14 q 65 18 72 26 q 79 35 79 50 l 79 497 q 79 512 72 520 q 65 528 48 533 l 48 547 l 538 547 q 554 547 562 554 q 570 561 575 578 l 588 578 l 588 416 l 575 416 q 570 434 562 441 q 554 448 538 448 l 210 448 l 210 328 l 416 328 q 432 328 439 334 q 447 341 453 359 l 466 359 l 466 201 l 453 201 q 448 218 440 225 q 432 232 416 232 z"},"Q":{"x_min":0,"x_max":855,"ha":855,"o":"m 707 86 l 758 32 q 776 14 782 10 q 788 5 796 5 q 803 5 819 12 l 829 0 l 687 -130 l 676 -118 q 686 -102 686 -94 q 686 -85 658 -53 l 601 18 q 528 -12 425 -12 q 254 -12 152 83 q 98 133 69 203 q 44 265 44 333 q 44 434 96 516 q 197 678 428 678 q 601 678 703 584 q 757 534 786 464 q 811 402 811 333 q 811 187 707 86 z m 610 183 q 662 248 662 334 q 662 442 587 509 q 524 565 428 565 q 331 565 268 509 q 193 441 193 333 q 193 225 268 158 q 332 102 428 102 q 474 102 518 117 q 513 124 509 129 q 457 195 387 212 l 387 226 q 422 253 467 253 q 499 253 531 237 q 563 222 610 183 z"},"w":{"x_min":0,"x_max":959,"ha":959,"o":"m 479 380 l 359 83 q 350 61 350 46 q 350 19 382 13 l 382 0 l 179 0 l 179 13 q 208 21 208 46 q 208 60 199 83 l 55 456 q 38 499 27 513 q 15 527 -8 533 l -8 547 l 200 547 l 200 533 q 170 523 170 502 q 170 492 180 467 l 282 209 l 384 465 q 394 488 394 500 q 394 525 361 533 l 361 547 l 604 547 l 604 533 q 572 523 572 499 q 572 488 581 467 l 680 209 l 780 470 q 786 487 786 500 q 786 513 779 521 q 772 528 754 533 l 754 547 l 967 547 l 967 533 q 943 524 932 511 q 921 498 905 456 l 758 83 q 750 62 750 47 q 750 19 784 13 l 784 0 l 572 0 l 572 13 q 603 22 603 49 q 603 56 592 83 z"},"-":{"x_min":0,"x_max":222,"ha":222,"o":"m 222 358 l 222 189 l 207 189 q 202 207 194 213 q 186 220 171 220 l 51 220 q 36 220 28 213 q 20 206 16 189 l 0 189 l 0 358 l 16 358 q 20 340 28 333 q 36 326 51 326 l 171 326 q 186 326 194 333 q 202 340 207 358 z"},"E":{"x_min":0,"x_max":760,"ha":760,"o":"m 237 292 l 237 110 l 666 110 q 680 110 688 117 q 696 124 701 141 l 716 141 l 716 -31 l 701 -31 q 696 -14 688 -7 q 680 0 666 0 l 60 0 l 60 16 q 78 21 84 28 q 91 36 91 51 l 91 615 q 91 630 84 638 q 78 646 60 651 l 60 667 l 654 667 q 668 667 676 674 q 684 681 689 698 l 705 698 l 705 526 l 689 526 q 684 543 676 550 q 668 557 654 557 l 237 557 l 237 398 l 507 398 q 522 398 530 405 q 538 412 542 430 l 558 430 l 558 261 l 542 261 q 538 278 530 285 q 522 292 507 292 z"},"s":{"x_min":0,"x_max":616,"ha":616,"o":"m 574 498 l 508 370 l 496 376 q 496 393 486 402 q 458 427 404 443 q 350 459 294 459 q 247 459 210 446 q 157 427 157 391 q 157 367 183 357 q 208 347 281 341 l 358 335 q 459 327 512 296 q 541 278 560 249 q 584 212 584 167 q 584 83 509 35 q 437 -12 314 -12 q 191 -12 76 41 q 68 44 62 44 q 53 44 44 32 l 32 37 l 88 171 l 101 166 q 101 163 101 162 q 101 149 110 141 q 135 119 195 103 q 255 87 313 87 q 365 87 406 101 q 457 118 457 155 q 457 185 422 196 q 398 204 337 209 l 261 216 q 199 221 166 229 q 133 236 109 251 q 78 271 60 305 q 42 338 42 378 q 42 468 120 516 q 190 559 293 559 q 350 559 398 546 q 447 534 514 502 q 534 493 542 493 q 550 493 562 504 z"},">":{"x_min":0,"x_max":500,"ha":500,"o":"m 34 618 l 467 393 l 467 274 l 34 49 l 34 189 l 317 333 l 34 477 z"},"l":{"x_min":0,"x_max":574,"ha":574,"o":"m 210 99 l 516 99 q 532 99 540 106 q 547 113 553 131 l 566 131 l 566 -31 l 553 -31 q 548 -14 540 -7 q 532 0 516 0 l 48 0 l 48 14 q 65 18 72 26 q 79 35 79 50 l 79 497 q 79 512 72 520 q 65 528 48 533 l 48 547 l 241 547 l 241 533 q 224 528 217 520 q 210 512 210 497 z"},"8":{"x_min":0,"x_max":713,"ha":713,"o":"m 528 356 q 677 318 677 200 q 677 120 614 61 q 537 -12 357 -12 q 234 -12 155 24 q 104 47 70 95 q 37 144 37 199 q 37 318 186 356 q 65 404 65 499 q 65 566 120 614 q 194 678 356 678 q 470 678 546 644 q 590 624 619 586 q 648 549 648 499 q 648 404 528 356 z m 355 574 q 287 574 246 552 q 206 530 206 493 q 206 456 247 435 q 287 413 356 413 q 426 413 467 435 q 507 456 507 492 q 507 531 468 552 q 428 574 355 574 z m 355 302 q 272 302 223 270 q 186 245 186 202 q 186 155 232 129 q 277 102 356 102 q 442 102 491 134 q 527 159 527 201 q 527 249 482 275 q 438 301 355 302 z"},"\\":{"x_min":0,"x_max":759,"ha":759,"o":"m 253 582 l 638 86 q 672 42 687 31 q 701 20 726 16 l 726 0 l 497 0 l 497 16 q 526 21 526 41 q 526 51 509 74 l 116 582 q 81 628 70 638 q 58 647 33 651 l 33 667 l 261 667 l 261 651 q 232 643 232 621 q 232 609 253 582 z"},"e":{"x_min":0,"x_max":642,"ha":642,"o":"m 210 232 l 210 99 l 557 99 q 572 99 580 106 q 588 113 593 131 l 607 131 l 607 -31 l 593 -31 q 589 -14 581 -7 q 572 0 557 0 l 48 0 l 48 14 q 65 18 72 26 q 79 35 79 50 l 79 497 q 79 512 72 520 q 65 528 48 533 l 48 547 l 542 547 q 558 547 566 554 q 574 561 579 578 l 592 578 l 592 416 l 579 416 q 574 434 566 441 q 558 448 542 448 l 210 448 l 210 328 l 416 328 q 431 328 439 334 q 447 341 453 359 l 466 359 l 466 201 l 453 201 q 448 218 440 225 q 432 232 416 232 z"},"b":{"x_min":0,"x_max":677,"ha":677,"o":"m 550 294 q 591 275 610 257 q 646 222 646 162 q 646 82 585 39 q 531 0 437 0 l 48 0 l 48 14 q 65 18 72 26 q 79 35 79 50 l 79 497 q 79 512 72 520 q 65 528 48 533 l 48 547 l 431 547 q 531 547 578 511 q 628 473 628 406 q 628 367 611 342 q 593 317 550 294 z m 210 342 l 409 342 q 456 342 475 354 q 495 366 495 395 q 495 424 475 436 q 456 448 409 448 l 210 448 z m 210 99 l 414 99 q 512 99 512 171 q 512 243 414 243 l 210 243 z"},"%":{"x_min":0,"x_max":883,"ha":883,"o":"m 203 672 q 274 672 321 629 q 374 581 374 498 q 374 418 321 370 q 274 327 204 327 q 133 327 86 370 q 33 419 33 500 q 33 582 86 629 q 133 671 203 672 z m 204 603 q 166 603 142 574 q 118 545 118 500 q 118 454 142 426 q 166 397 204 397 q 241 397 265 426 q 290 454 290 499 q 290 545 266 574 q 243 602 204 603 z m 679 339 q 750 339 797 296 q 850 248 850 165 q 850 85 797 37 q 750 -6 680 -6 q 609 -6 562 37 q 509 85 509 167 q 509 249 562 296 q 609 338 679 339 z m 680 270 q 642 270 618 241 q 594 212 594 167 q 594 121 618 93 q 642 64 680 64 q 717 64 741 93 q 766 121 766 166 q 766 212 742 241 q 719 269 680 270 z m 674 582 l 281 74 q 264 51 264 41 q 264 21 293 16 l 293 0 l 119 0 l 119 16 q 144 20 158 31 q 173 42 207 86 l 591 582 q 613 609 613 622 q 613 643 583 651 l 583 667 l 757 667 l 757 651 q 732 647 720 638 q 709 628 674 582 z"},"m":{"x_min":0,"x_max":819,"ha":819,"o":"m 397 17 l 198 359 l 198 50 q 198 35 205 27 q 212 19 229 13 l 229 0 l 48 0 l 48 14 q 65 18 72 26 q 79 35 79 50 l 79 497 q 79 512 72 520 q 65 528 48 533 l 48 547 l 279 547 l 279 533 q 256 526 256 505 q 256 485 272 457 l 409 227 l 546 453 q 569 492 569 508 q 569 528 545 533 l 545 547 l 771 547 l 771 533 q 753 528 746 520 q 739 512 739 497 l 739 50 q 739 35 746 26 q 753 18 771 13 l 771 0 l 577 0 l 577 14 q 594 18 601 26 q 608 35 608 50 l 608 359 z"},"#":{"x_min":0,"x_max":767,"ha":767,"o":"m 603 515 l 684 515 q 699 515 708 522 q 718 529 726 547 l 741 547 l 710 380 l 693 380 q 692 397 685 404 q 679 411 664 411 l 583 411 l 552 252 l 633 252 q 648 252 657 259 q 667 266 674 283 l 690 283 l 659 117 l 642 117 q 641 134 634 141 q 628 148 613 148 l 532 148 l 513 50 q 512 48 512 42 q 512 30 517 25 q 522 20 537 15 l 534 -2 l 368 -2 l 371 15 q 390 20 398 28 q 406 35 409 50 l 428 148 l 268 148 l 249 50 q 249 48 249 42 q 249 30 253 25 q 258 20 273 15 l 271 -2 l 104 -2 l 107 15 q 126 20 135 28 q 143 35 146 50 l 165 148 l 83 148 q 69 148 60 141 q 50 134 42 117 l 25 117 l 58 283 l 74 283 q 76 265 82 259 q 88 252 104 252 l 185 252 l 216 411 l 135 411 q 120 411 111 405 q 102 398 93 380 l 77 380 l 109 547 l 125 547 q 127 529 133 522 q 140 515 155 515 l 236 515 l 255 613 q 256 616 256 621 q 256 633 251 638 q 246 644 231 648 l 234 664 l 400 664 l 396 648 q 378 644 370 635 q 361 627 358 613 l 339 515 l 500 515 l 519 613 q 519 616 519 621 q 519 633 514 638 q 509 644 494 648 l 497 664 l 663 664 l 660 648 q 642 644 633 635 q 625 627 622 613 z m 448 252 l 479 411 l 319 411 l 288 252 z"},",":{"x_min":0,"x_max":307,"ha":307,"o":"m 96 -122 q 136 -96 154 -71 q 171 -46 179 -6 q 155 -12 145 -12 q 112 -12 93 11 q 73 33 73 69 q 73 105 93 127 q 113 148 146 148 q 189 148 213 112 q 233 80 233 34 q 233 -73 120 -153 z"},"n":{"x_min":0,"x_max":744,"ha":744,"o":"m 198 360 l 198 50 q 198 35 205 26 q 212 18 229 13 l 229 0 l 48 0 l 48 14 q 65 18 72 26 q 79 35 79 50 l 79 497 q 79 512 72 520 q 65 528 48 533 l 48 547 l 258 547 l 258 533 q 236 528 236 514 q 236 502 252 487 l 545 196 l 545 497 q 545 512 538 520 q 531 528 514 533 l 514 547 l 695 547 l 695 533 q 678 528 671 520 q 664 512 664 497 l 664 50 q 664 35 671 27 q 678 19 695 13 l 695 0 l 500 0 l 500 13 q 521 18 521 31 q 521 38 515 45 q 509 53 488 74 z"},"h":{"x_min":0,"x_max":726,"ha":726,"o":"m 515 238 l 210 238 l 210 50 q 210 35 217 27 q 224 19 241 13 l 241 0 l 48 0 l 48 14 q 65 18 72 26 q 79 35 79 50 l 79 497 q 79 512 72 520 q 65 528 48 533 l 48 547 l 241 547 l 241 533 q 224 528 217 520 q 210 512 210 497 l 210 337 l 515 337 l 515 497 q 515 512 509 520 q 502 528 484 533 l 484 547 l 677 547 l 677 533 q 660 528 653 520 q 646 512 646 497 l 646 50 q 646 35 653 27 q 660 19 677 13 l 677 0 l 484 0 l 484 14 q 501 18 508 26 q 515 35 515 50 z"},"z":{"x_min":0,"x_max":609,"ha":609,"o":"m 250 99 l 527 99 q 542 99 550 106 q 558 113 563 131 l 577 131 l 577 -31 l 563 -31 q 559 -14 551 -7 q 542 0 527 0 l 37 0 l 37 29 l 356 448 l 91 448 q 75 448 67 441 q 60 434 54 416 l 41 416 l 41 578 l 54 578 q 59 561 67 554 q 75 547 91 547 l 572 547 l 572 523 z"},"B":{"x_min":0,"x_max":806,"ha":806,"o":"m 654 349 q 766 307 766 192 q 766 101 701 49 q 667 23 624 11 q 580 0 516 0 l 60 0 l 60 16 q 78 21 84 28 q 91 36 91 51 l 91 615 q 91 630 84 638 q 78 646 60 651 l 60 667 l 511 667 q 576 667 616 657 q 655 647 685 624 q 744 577 744 490 q 744 392 654 349 z m 237 401 l 492 401 q 550 401 573 418 q 599 438 599 479 q 599 521 575 539 q 550 557 492 557 l 237 557 z m 237 110 l 484 110 q 553 110 583 129 q 618 151 618 201 q 618 250 583 272 q 553 292 484 292 l 237 292 z"},"K":{"x_min":0,"x_max":802,"ha":802,"o":"m 337 312 l 237 230 l 237 51 q 237 36 244 28 q 251 20 268 16 l 268 0 l 60 0 l 60 16 q 78 21 84 28 q 91 36 91 51 l 91 616 q 91 630 84 638 q 78 646 60 651 l 60 667 l 268 667 l 268 651 q 250 646 244 638 q 237 630 237 616 l 237 382 l 511 606 q 530 622 530 631 q 530 646 502 651 l 502 667 l 774 667 l 774 651 q 757 647 750 643 q 743 639 708 610 l 670 579 l 443 396 l 700 87 q 736 44 752 32 q 768 20 792 16 l 792 0 l 531 0 l 531 16 q 557 21 557 34 q 557 41 534 70 z"},"R":{"x_min":0,"x_max":809,"ha":809,"o":"m 237 272 l 237 51 q 237 36 244 28 q 251 20 268 16 l 268 0 l 60 0 l 60 16 q 78 21 84 28 q 91 36 91 51 l 91 615 q 91 630 84 638 q 78 646 60 651 l 60 667 l 477 667 q 553 667 598 658 q 643 649 676 627 q 714 602 733 558 q 751 516 751 468 q 751 305 570 277 l 700 93 q 734 45 750 31 q 766 17 789 16 l 789 0 l 547 0 l 547 16 q 572 20 572 33 q 572 42 549 76 l 415 272 z m 237 382 l 461 382 q 511 382 532 385 q 552 388 569 397 q 606 417 606 469 q 606 521 569 542 q 552 551 532 554 q 512 557 461 557 l 237 557 z"},"T":{"x_min":0,"x_max":674,"ha":674,"o":"m 410 557 l 410 51 q 410 36 417 28 q 424 21 441 16 l 441 0 l 233 0 l 233 16 q 251 21 258 28 q 265 36 265 51 l 265 557 l 58 557 q 43 557 35 550 q 27 543 22 526 l 7 526 l 7 698 l 22 698 q 28 680 35 673 q 43 667 58 667 l 617 667 q 632 667 640 673 q 647 680 652 698 l 668 698 l 668 526 l 652 526 q 647 543 640 550 q 632 557 617 557 z"},"P":{"x_min":0,"x_max":765,"ha":765,"o":"m 237 271 l 237 51 q 237 36 244 28 q 251 20 268 16 l 268 0 l 60 0 l 60 16 q 78 21 84 28 q 91 36 91 51 l 91 615 q 91 630 84 638 q 78 646 60 651 l 60 667 l 476 667 q 549 667 592 657 q 634 647 667 623 q 701 598 720 558 q 739 516 739 469 q 739 401 703 351 q 671 307 620 289 q 568 271 476 271 z m 237 380 l 459 380 q 525 380 552 395 q 569 404 580 424 q 590 444 590 469 q 590 493 580 513 q 569 533 552 542 q 526 557 459 557 l 237 557 z"},"|":{"x_min":0,"x_max":500,"ha":500,"o":"m 179 667 l 321 667 l 321 -167 l 179 -167 z"},"t":{"x_min":0,"x_max":569,"ha":569,"o":"m 350 448 l 350 50 q 350 35 356 27 q 363 19 381 13 l 381 0 l 188 0 l 188 14 q 205 18 212 26 q 219 35 219 50 l 219 448 l 58 448 q 42 448 34 441 q 26 434 21 416 l 8 416 l 8 578 l 21 578 q 26 561 34 554 q 42 547 58 547 l 511 547 q 526 547 534 554 q 542 561 547 578 l 561 578 l 561 416 l 547 416 q 542 434 534 441 q 526 448 511 448 z"},"M":{"x_min":0,"x_max":966,"ha":966,"o":"m 470 9 l 225 460 l 225 51 q 225 36 231 28 q 238 21 256 16 l 256 0 l 60 0 l 60 16 q 78 21 84 28 q 91 36 91 51 l 91 616 q 91 630 84 638 q 78 646 60 651 l 60 667 l 317 667 l 317 651 q 294 645 294 624 q 294 614 301 602 l 482 267 l 667 596 q 679 618 679 628 q 679 648 654 651 l 654 667 l 906 667 l 906 651 q 889 646 882 638 q 875 630 875 616 l 875 51 q 875 36 882 28 q 889 21 906 16 l 906 0 l 698 0 l 698 16 q 715 20 722 28 q 729 36 729 51 l 729 460 z"},"g":{"x_min":0,"x_max":720,"ha":720,"o":"m 541 211 l 417 211 q 401 211 393 204 q 385 197 380 180 l 367 180 l 367 324 l 380 324 q 385 307 393 300 q 401 293 417 293 l 677 293 l 677 279 q 660 274 653 265 q 646 256 646 239 l 646 124 q 646 108 653 100 q 660 92 677 87 l 677 76 q 519 -12 361 -12 q 226 -12 142 52 q 96 87 68 139 q 36 201 36 271 q 36 367 95 442 q 188 559 370 559 q 449 559 551 523 q 592 510 599 510 q 607 510 618 518 l 630 511 l 565 374 l 553 379 q 553 381 553 382 q 553 400 517 419 q 450 455 374 455 q 285 455 229 407 q 169 356 169 270 q 169 189 223 141 q 279 92 379 92 q 475 92 541 127 z"},"j":{"x_min":0,"x_max":505,"ha":505,"o":"m 2 15 l 51 164 l 63 159 q 63 142 74 131 q 90 116 129 104 q 168 92 203 92 q 255 92 281 115 q 306 139 306 188 l 306 497 q 306 512 299 520 q 292 528 274 533 l 274 547 l 468 547 l 468 533 q 450 528 443 520 q 437 512 437 497 l 437 185 q 437 95 406 56 q 381 24 333 6 q 284 -12 222 -12 q 153 -12 53 21 q 43 23 38 23 q 26 23 16 11 z"},"i":{"x_min":0,"x_max":290,"ha":290,"o":"m 210 497 l 210 50 q 210 35 217 27 q 224 19 241 13 l 241 0 l 48 0 l 48 14 q 65 18 72 26 q 79 35 79 50 l 79 497 q 79 512 72 520 q 65 528 48 533 l 48 547 l 241 547 l 241 533 q 224 528 217 520 q 210 512 210 497 z"},"y":{"x_min":0,"x_max":599,"ha":599,"o":"m 365 240 l 365 50 q 365 35 372 27 q 378 19 396 13 l 396 0 l 203 0 l 203 13 q 220 18 227 26 q 234 34 234 50 l 234 240 l 72 463 q 44 500 28 514 q 12 528 -11 533 l -11 547 l 235 547 l 235 533 q 204 525 204 503 q 204 493 227 460 l 306 350 l 384 460 q 407 493 407 504 q 407 524 375 533 l 375 547 l 609 547 l 609 533 q 587 528 571 514 q 554 500 527 463 z"},"@":{"x_min":0,"x_max":821,"ha":821,"o":"m 622 473 l 566 249 q 565 244 565 238 q 565 216 595 216 q 623 216 653 240 q 672 255 684 291 q 696 327 696 370 q 696 462 631 523 q 588 564 531 585 q 479 604 427 604 q 348 604 271 562 q 194 519 156 453 q 125 400 125 335 q 125 262 163 197 q 241 62 423 62 q 458 62 503 69 q 548 76 577 86 q 588 90 588 102 q 588 105 588 109 l 600 112 l 632 -2 l 621 -5 q 608 19 594 19 q 588 19 577 16 q 478 -10 411 -10 q 267 -10 167 76 q 53 173 53 326 q 53 433 108 517 q 167 606 275 648 q 351 677 432 677 q 578 677 678 589 q 769 509 769 387 q 769 276 698 212 q 651 169 604 169 q 567 169 545 182 q 522 195 502 228 q 474 206 432 193 q 390 181 346 181 q 286 181 249 210 q 208 243 208 299 q 208 363 254 414 q 284 447 330 466 q 375 485 426 485 q 494 485 545 438 l 556 473 z m 411 423 q 362 423 327 396 q 286 365 284 314 q 282 283 304 263 q 327 243 364 243 q 427 243 468 272 q 509 303 509 342 q 509 381 484 402 q 458 423 411 423 z"},".":{"x_min":0,"x_max":307,"ha":307,"o":"m 153 148 q 187 148 210 125 q 233 102 233 68 q 233 35 210 12 q 186 -12 153 -12 q 120 -12 97 12 q 73 36 73 69 q 73 102 96 125 q 120 148 153 148 z"},"p":{"x_min":0,"x_max":652,"ha":652,"o":"m 210 225 l 210 50 q 210 35 217 27 q 224 19 241 13 l 241 0 l 48 0 l 48 14 q 65 18 72 26 q 79 35 79 50 l 79 497 q 79 512 72 520 q 65 528 48 533 l 48 547 l 404 547 q 510 547 564 515 q 595 497 613 462 q 630 428 630 386 q 630 304 575 264 q 519 225 404 225 z m 210 324 l 396 324 q 448 324 468 333 q 497 348 497 386 q 497 424 468 438 q 448 448 396 448 l 210 448 z"},"X":{"x_min":0,"x_max":752,"ha":752,"o":"m 460 347 l 662 86 q 695 43 710 31 q 724 20 750 16 l 750 0 l 485 0 l 485 16 q 515 21 515 41 q 515 51 497 74 l 369 239 l 247 80 q 227 54 227 43 q 227 19 259 16 l 259 0 l 3 0 l 3 16 q 26 18 38 28 q 51 39 88 86 l 290 340 l 104 582 q 68 629 56 639 q 44 648 18 651 l 18 667 l 285 667 l 285 651 q 256 643 256 621 q 256 609 277 582 l 381 448 l 487 582 q 511 612 511 624 q 511 646 477 651 l 477 667 l 737 667 l 737 651 q 714 648 704 640 q 694 632 652 582 z"},"*":{"x_min":0,"x_max":504,"ha":504,"o":"m 178 733 l 326 733 l 326 715 q 302 709 294 685 q 286 661 285 586 q 350 609 372 623 q 395 638 395 658 q 395 661 394 666 l 412 671 l 458 531 l 440 525 q 427 546 404 546 q 375 546 305 525 q 343 475 361 457 q 380 440 396 440 q 402 440 414 445 l 425 430 l 305 343 l 294 358 q 306 373 306 383 q 306 409 252 486 q 199 409 199 383 q 199 373 210 358 l 200 343 l 80 430 l 91 445 q 103 440 110 440 q 137 440 200 524 q 127 546 100 546 q 79 546 64 525 l 47 530 l 93 671 l 110 666 q 110 661 110 657 q 110 638 135 622 q 160 606 220 586 q 218 663 210 686 q 203 709 178 715 z"},"Y":{"x_min":0,"x_max":713,"ha":713,"o":"m 429 279 l 429 51 q 429 36 436 28 q 443 21 461 16 l 461 0 l 251 0 l 251 16 q 269 21 276 28 q 284 36 284 51 l 284 279 l 68 582 q 41 621 25 635 q 9 648 -13 651 l -13 667 l 250 667 l 250 651 q 217 646 217 621 q 217 612 237 582 l 357 403 l 481 582 q 501 611 501 621 q 501 632 492 640 q 483 648 468 651 l 468 667 l 726 667 l 726 651 q 704 648 688 635 q 672 621 645 582 z"},"c":{"x_min":0,"x_max":697,"ha":697,"o":"m 583 196 l 665 76 l 654 67 q 642 76 635 76 q 627 76 597 58 q 530 19 479 3 q 427 -12 360 -12 q 227 -12 142 52 q 94 89 66 144 q 36 204 36 273 q 36 370 91 443 q 179 559 359 559 q 426 559 478 543 q 530 528 597 489 q 627 471 635 471 q 642 471 654 479 l 665 471 l 583 351 l 572 359 q 572 365 573 366 q 573 371 573 373 q 573 396 507 427 q 445 456 381 456 q 292 456 235 409 q 169 356 169 273 q 169 190 235 138 q 293 91 381 91 q 451 91 520 126 q 573 153 573 174 q 573 175 572 188 z"},"!":{"x_min":0,"x_max":378,"ha":378,"o":"m 253 234 l 125 234 l 125 250 q 145 255 150 262 q 156 269 156 286 q 156 296 154 308 l 119 608 q 116 634 111 641 q 105 647 86 651 l 86 667 l 292 667 l 292 651 q 272 647 267 641 q 262 634 259 608 l 224 308 q 222 296 222 286 q 222 268 228 262 q 233 255 253 250 z m 189 148 q 223 148 246 125 q 269 102 269 68 q 269 35 245 12 q 222 -12 189 -12 q 156 -12 132 12 q 109 36 109 69 q 109 102 132 125 q 155 148 189 148 z"},"/":{"x_min":0,"x_max":759,"ha":759,"o":"m 643 582 l 250 74 q 232 51 232 41 q 232 21 262 16 l 262 0 l 33 0 l 33 16 q 59 20 73 31 q 87 42 121 86 l 505 582 q 527 609 527 622 q 527 643 498 651 l 498 667 l 726 667 l 726 651 q 701 647 690 638 q 678 628 643 582 z"},"[":{"x_min":0,"x_max":333,"ha":333,"o":"m 65 720 l 275 720 q 291 720 299 727 q 307 734 312 751 l 325 751 l 325 621 l 312 621 q 307 638 299 645 q 291 652 275 652 l 204 652 l 204 15 l 269 15 q 290 15 298 21 q 307 27 312 46 l 325 46 l 325 -84 l 312 -84 q 307 -67 299 -60 q 291 -53 275 -53 l 65 -54 l 65 -42 q 83 -37 90 -30 q 97 -22 97 -8 l 97 674 q 97 688 90 696 q 83 704 65 708 z"},"6":{"x_min":0,"x_max":713,"ha":713,"o":"m 677 628 l 591 468 l 577 475 q 580 488 580 494 q 580 514 548 533 q 522 550 481 560 q 441 570 403 570 q 322 570 264 528 q 227 500 208 461 q 190 421 186 358 q 235 402 285 421 q 336 440 402 440 q 508 440 584 390 q 627 361 652 315 q 675 271 675 218 q 675 113 588 50 q 503 -12 372 -12 q 230 -12 151 60 q 98 106 72 180 q 47 250 47 327 q 47 482 143 579 q 243 678 401 678 q 457 678 502 668 q 547 658 606 632 q 626 623 638 623 q 646 623 654 629 q 661 634 664 636 z m 375 329 q 301 329 254 292 q 215 262 215 214 q 215 166 254 135 q 301 98 376 98 q 452 98 499 135 q 538 166 538 212 q 538 262 499 292 q 453 329 375 329 z"},"r":{"x_min":0,"x_max":687,"ha":687,"o":"m 210 225 l 210 50 q 210 35 217 27 q 224 19 241 13 l 241 0 l 48 0 l 48 14 q 65 18 72 26 q 79 35 79 50 l 79 497 q 79 512 72 520 q 65 528 48 533 l 48 547 l 406 547 q 476 547 513 540 q 549 533 578 514 q 637 476 637 388 q 637 322 601 284 q 564 247 483 230 l 587 86 q 615 46 632 31 q 649 17 670 13 l 670 0 l 441 0 l 441 13 q 466 20 466 35 q 466 46 451 68 l 341 225 z m 210 324 l 407 324 q 452 324 474 333 q 504 347 504 386 q 504 420 483 434 q 461 448 407 448 l 210 448 z"},"2":{"x_min":0,"x_max":713,"ha":713,"o":"m 214 120 l 622 120 q 637 120 645 127 q 653 134 658 151 l 673 151 l 673 -31 l 658 -31 q 653 -14 645 -7 q 637 0 622 0 l 103 0 q 78 0 69 -6 q 61 -12 56 -31 l 41 -31 q 40 -7 40 0 q 40 62 54 103 q 83 185 162 242 q 202 271 294 313 l 376 351 q 435 378 460 406 q 486 435 486 474 q 486 519 455 542 q 425 565 367 565 q 296 565 235 530 q 176 497 176 462 q 176 454 184 431 l 173 420 l 43 560 l 55 571 q 73 562 82 562 q 90 562 96 565 q 102 569 120 585 q 227 678 385 678 q 498 678 566 623 q 635 566 635 472 q 635 379 569 318 q 525 279 452 246 l 377 212 q 365 207 324 190 q 273 169 252 156 q 232 144 214 120 z"},"{":{"x_min":0,"x_max":333,"ha":333,"o":"m 327 -84 l 313 -84 q 309 -66 300 -60 q 292 -53 271 -53 l 158 -53 q 128 -53 102 -33 q 69 -8 70 22 l 70 204 q 69 259 64 274 q 59 289 40 289 l 9 289 q -1 289 -7 282 q -13 275 -17 257 l -28 257 l -28 410 l -17 410 q -13 392 -7 385 q -2 378 9 378 l 40 378 q 59 378 64 393 q 69 408 70 462 l 70 645 q 70 673 97 697 q 125 720 158 720 l 271 720 q 292 720 301 727 q 309 733 313 751 l 327 751 l 327 615 l 313 615 q 309 634 300 641 q 292 647 271 647 l 231 647 q 178 642 179 577 l 179 403 q 179 381 170 367 q 162 352 138 333 q 162 315 170 300 q 179 286 179 263 l 179 90 q 178 25 231 20 l 271 20 q 292 20 300 26 q 309 33 313 52 l 327 52 z"},"9":{"x_min":0,"x_max":713,"ha":713,"o":"m 37 39 l 123 198 l 137 191 q 134 179 134 172 q 134 153 165 133 q 191 117 232 107 q 273 96 310 96 q 392 96 449 139 q 487 167 505 206 q 523 245 528 309 q 479 265 428 245 q 377 226 311 226 q 205 226 129 276 q 86 305 62 351 q 39 396 39 448 q 39 554 126 617 q 211 678 341 678 q 482 678 562 607 q 616 560 642 487 q 667 417 667 340 q 667 184 570 88 q 471 -12 312 -12 q 256 -12 212 -2 q 167 8 107 35 q 87 44 76 44 q 67 44 59 38 q 53 32 50 30 z m 337 568 q 262 568 215 532 q 176 501 176 453 q 176 405 215 374 q 262 337 337 337 q 413 337 459 374 q 498 405 498 452 q 498 501 459 532 q 414 568 337 568 z"}," ":{"x_min":0,"x_max":250,"ha":250,"o":""},"I":{"x_min":0,"x_max":328,"ha":328,"o":"m 91 51 l 91 616 q 91 630 84 638 q 78 646 60 651 l 60 667 l 268 667 l 268 651 q 250 646 244 638 q 237 630 237 616 l 237 51 q 237 36 244 28 q 251 20 268 16 l 268 0 l 60 0 l 60 16 q 78 21 84 28 q 91 36 91 51 z"},"H":{"x_min":0,"x_max":858,"ha":858,"o":"m 621 291 l 237 291 l 237 51 q 237 36 244 28 q 251 20 268 16 l 268 0 l 60 0 l 60 16 q 78 21 84 28 q 91 36 91 51 l 91 616 q 91 630 84 638 q 78 646 60 651 l 60 667 l 268 667 l 268 651 q 250 646 244 638 q 237 630 237 616 l 237 401 l 621 401 l 621 616 q 621 630 614 638 q 607 646 590 651 l 590 667 l 798 667 l 798 651 q 780 646 773 638 q 767 630 767 616 l 767 51 q 767 36 773 28 q 780 21 798 16 l 798 0 l 590 0 l 590 16 q 607 20 614 28 q 621 36 621 51 z"},"4":{"x_min":0,"x_max":713,"ha":713,"o":"m 460 112 l 109 112 q 81 112 72 107 q 63 101 59 81 l 44 81 l 44 222 l 375 594 q 396 619 396 630 q 396 647 372 651 l 372 667 l 633 667 l 633 651 q 615 646 608 638 q 602 630 602 616 l 602 222 l 638 222 q 653 222 661 229 q 669 236 674 253 l 689 253 l 689 81 l 674 81 q 669 98 661 105 q 653 112 638 112 l 602 112 l 602 51 q 602 36 608 28 q 615 21 633 16 l 633 0 l 429 0 l 429 16 q 447 21 454 28 q 460 36 460 51 z m 460 222 l 460 515 l 203 222 z"},"~":{"x_min":0,"x_max":667,"ha":667,"o":"m 162 236 l 93 294 q 112 341 135 371 q 178 428 239 428 q 274 428 349 395 q 411 367 433 367 q 471 367 506 430 l 576 373 q 552 319 530 292 q 487 238 428 238 q 409 238 390 245 q 372 251 292 285 q 256 300 235 300 q 214 300 198 286 q 182 271 162 236 z"},"D":{"x_min":0,"x_max":838,"ha":838,"o":"m 91 51 l 91 615 q 91 630 84 638 q 78 646 60 651 l 60 667 l 432 667 q 554 667 619 639 q 713 598 758 505 q 793 432 793 333 q 793 161 688 71 q 643 33 583 16 q 524 0 432 0 l 60 0 l 60 16 q 78 21 84 28 q 91 36 91 51 z m 237 110 l 419 110 q 507 110 551 134 q 645 185 645 333 q 645 441 594 498 q 566 530 526 543 q 486 557 419 557 l 237 557 z"},"^":{"x_min":0,"x_max":500,"ha":500,"o":"m 143 353 l 17 353 l 171 670 l 329 670 l 483 353 l 357 353 l 250 574 z"},"0":{"x_min":0,"x_max":713,"ha":713,"o":"m 356 678 q 487 678 574 593 q 672 497 672 329 q 672 276 657 222 q 643 167 617 127 q 573 57 500 21 q 436 -12 356 -12 q 225 -12 139 74 q 97 116 74 168 q 41 245 41 333 q 41 453 96 540 q 139 608 213 646 q 274 677 356 678 z m 356 565 q 278 565 232 496 q 190 432 190 337 q 190 243 232 179 q 278 110 356 110 q 435 110 480 179 q 523 243 523 334 q 523 434 480 496 q 435 564 356 565 z"},"F":{"x_min":0,"x_max":728,"ha":728,"o":"m 237 292 l 237 51 q 237 36 244 28 q 251 20 268 16 l 268 0 l 60 0 l 60 16 q 78 21 84 28 q 91 36 91 51 l 91 615 q 91 630 84 638 q 78 646 60 651 l 60 667 l 650 667 q 665 667 672 673 q 680 680 685 698 l 701 698 l 701 526 l 685 526 q 680 543 672 550 q 665 557 650 557 l 237 557 l 237 397 l 507 397 q 522 397 530 405 q 538 412 542 429 l 558 429 l 558 261 l 542 261 q 538 278 530 285 q 522 292 507 292 z"},"`":{"x_min":0,"x_max":500,"ha":500,"o":"m 120 749 l 269 749 l 269 735 q 255 734 255 726 q 255 723 257 719 l 289 639 q 293 628 298 625 q 303 622 315 622 l 315 608 l 209 608 l 209 622 q 210 622 211 622 q 221 622 221 629 q 221 634 218 637 l 149 722 q 139 735 120 735 z"},"k":{"x_min":0,"x_max":685,"ha":685,"o":"m 288 250 l 210 186 l 210 50 q 210 35 217 27 q 224 19 241 13 l 241 0 l 48 0 l 48 14 q 65 18 72 26 q 79 35 79 50 l 79 497 q 79 512 72 520 q 65 528 48 533 l 48 547 l 241 547 l 241 533 q 224 528 217 520 q 210 512 210 497 l 210 318 l 416 482 q 438 500 438 514 q 438 528 410 533 l 410 547 l 656 547 l 656 534 q 638 531 625 522 q 613 514 563 471 l 379 324 l 582 91 q 621 45 638 32 q 655 18 677 13 l 677 0 l 438 0 l 438 13 q 464 20 464 33 q 464 38 461 42 q 458 47 438 69 z"},"u":{"x_min":0,"x_max":690,"ha":690,"o":"m 622 497 l 622 208 q 622 108 583 62 q 520 -12 345 -12 q 229 -12 157 24 q 105 50 86 98 q 68 142 68 208 l 68 497 q 68 512 62 520 q 55 528 37 533 l 37 547 l 231 547 l 231 533 q 213 528 206 520 q 199 512 199 497 l 199 234 q 199 188 207 164 q 215 139 235 124 q 275 92 351 92 q 427 92 467 124 q 486 139 494 164 q 502 188 502 234 l 502 497 q 502 512 495 520 q 489 528 471 533 l 471 547 l 653 547 l 653 533 q 635 528 628 520 q 622 512 622 497 z"},"]":{"x_min":0,"x_max":333,"ha":333,"o":"m 268 720 l 268 708 q 250 704 243 696 q 236 688 236 674 l 236 -8 q 236 -22 243 -29 q 250 -37 268 -42 l 268 -54 l 58 -53 q 42 -53 34 -60 q 26 -67 21 -84 l 8 -84 l 8 46 l 21 46 q 26 27 35 21 q 43 15 64 15 l 129 15 l 129 652 l 58 652 q 42 652 34 645 q 26 638 21 621 l 8 621 l 8 751 l 21 751 q 26 734 34 727 q 42 720 58 720 z"},"U":{"x_min":0,"x_max":816,"ha":816,"o":"m 738 615 l 738 242 q 738 136 699 83 q 629 -12 409 -12 q 250 -12 165 40 q 116 69 97 121 q 78 171 78 242 l 78 615 q 78 630 71 638 q 64 646 47 651 l 47 667 l 255 667 l 255 651 q 238 646 231 638 q 224 630 224 615 l 224 283 q 224 225 230 198 q 236 170 254 151 q 301 102 414 102 q 528 102 575 151 q 592 170 598 198 q 604 225 604 283 l 604 615 q 604 630 598 638 q 591 646 573 651 l 573 667 l 770 667 l 770 651 q 752 646 745 638 q 738 630 738 615 z"},"o":{"x_min":0,"x_max":713,"ha":713,"o":"m 355 559 q 486 559 573 492 q 677 412 677 269 q 677 135 573 55 q 487 -12 356 -12 q 226 -12 140 55 q 36 135 36 273 q 36 414 140 492 q 227 557 355 559 z m 356 455 q 271 455 218 401 q 169 350 169 273 q 169 197 218 146 q 271 92 356 92 q 441 92 494 146 q 543 197 543 271 q 543 352 494 401 q 440 454 356 455 z"},"N":{"x_min":0,"x_max":872,"ha":872,"o":"m 225 457 l 225 51 q 225 36 231 28 q 238 21 256 16 l 256 0 l 60 0 l 60 16 q 78 21 84 28 q 91 36 91 51 l 91 616 q 91 630 84 638 q 78 646 60 651 l 60 667 l 287 667 l 287 651 q 266 646 266 628 q 266 617 279 603 l 647 220 l 647 616 q 647 630 640 638 q 633 646 616 651 l 616 667 l 812 667 l 812 651 q 794 646 787 638 q 780 630 780 616 l 780 51 q 780 36 787 28 q 794 21 812 16 l 812 0 l 602 0 l 602 16 q 622 20 622 37 q 622 46 598 71 z"},"+":{"x_min":0,"x_max":767,"ha":767,"o":"m 335 286 l 161 286 q 147 286 140 279 q 133 272 128 254 l 114 254 l 114 413 l 129 413 q 133 395 140 388 q 147 381 161 381 l 335 381 l 335 555 q 335 569 329 576 q 322 583 304 587 l 304 602 l 462 602 l 462 588 q 445 583 438 576 q 431 569 431 555 l 431 381 l 605 381 q 619 381 626 388 q 633 395 638 413 l 652 413 l 652 254 l 638 254 q 633 272 626 279 q 619 286 605 286 l 431 286 l 431 111 q 431 98 438 90 q 445 83 462 79 l 462 64 l 304 64 l 304 79 q 322 83 329 90 q 335 98 335 111 z"},"G":{"x_min":0,"x_max":858,"ha":858,"o":"m 653 240 l 488 240 q 473 240 466 233 q 458 226 453 208 l 438 208 l 438 364 l 453 364 q 458 346 466 339 q 473 333 488 333 l 805 333 l 805 317 q 787 312 780 304 q 773 296 773 281 l 773 145 q 773 129 780 122 q 787 114 805 109 l 805 97 q 615 -12 437 -12 q 275 -12 173 65 q 44 162 44 333 q 44 494 159 588 q 267 678 447 678 q 504 678 554 668 q 605 657 669 632 q 703 619 717 619 q 727 619 741 630 l 754 623 l 676 463 l 662 471 q 662 487 658 494 q 654 501 640 511 q 610 534 553 550 q 495 565 444 565 q 339 565 271 507 q 193 440 193 332 q 193 226 269 161 q 338 102 451 102 q 506 102 560 114 q 614 127 653 149 z"},"q":{"x_min":0,"x_max":723,"ha":723,"o":"m 593 72 l 642 20 q 662 -1 675 0 q 683 0 693 8 l 702 -1 l 583 -110 l 575 -100 q 583 -90 583 -82 q 583 -73 561 -47 l 506 16 q 440 -12 356 -12 q 226 -12 140 55 q 36 135 36 273 q 36 412 140 492 q 227 559 356 559 q 487 559 573 492 q 677 412 677 273 q 677 150 593 72 z m 506 161 q 544 208 544 274 q 544 350 495 401 q 442 455 356 455 q 271 455 218 401 q 169 350 169 273 q 169 197 218 146 q 271 92 356 92 q 394 92 431 105 q 376 172 324 185 l 324 193 q 356 216 388 216 q 440 216 506 161 z"},"d":{"x_min":0,"x_max":704,"ha":704,"o":"m 79 50 l 79 497 q 79 512 72 520 q 65 528 48 533 l 48 547 l 369 547 q 469 547 526 522 q 607 487 643 406 q 668 349 668 273 q 668 133 584 61 q 547 29 496 14 q 445 0 369 0 l 48 0 l 48 14 q 65 18 72 26 q 79 35 79 50 z m 210 99 l 350 99 q 446 99 489 143 q 535 189 535 273 q 535 358 489 404 q 467 427 434 437 q 400 448 350 448 l 210 448 z"},"1":{"x_min":0,"x_max":713,"ha":713,"o":"m 215 426 l 215 603 l 231 603 q 236 585 241 580 q 246 574 256 574 q 261 574 270 576 l 312 587 l 312 616 q 312 630 305 638 q 298 646 281 651 l 281 667 l 484 667 l 484 651 q 467 646 460 638 q 453 631 453 616 l 453 51 q 453 36 460 28 q 467 21 484 16 l 484 0 l 281 0 l 281 16 q 298 21 305 28 q 312 36 312 51 l 312 473 l 266 462 q 250 458 243 451 q 236 443 231 426 z"},"5":{"x_min":0,"x_max":713,"ha":713,"o":"m 28 79 l 146 235 l 158 226 q 155 213 155 205 q 155 180 194 155 q 276 102 375 102 q 449 102 491 133 q 537 167 537 225 q 537 279 493 312 q 449 344 375 344 q 320 344 271 326 q 223 309 223 289 q 223 282 229 269 l 218 259 l 46 432 l 56 443 q 60 443 62 443 q 86 443 86 473 l 86 614 q 86 630 79 638 q 72 646 55 651 l 55 667 l 583 667 q 598 667 606 673 q 613 680 619 698 l 634 698 l 634 522 l 619 522 q 613 540 606 546 q 598 553 583 553 l 203 553 l 203 409 q 283 449 390 449 q 529 449 608 384 q 682 324 682 226 q 682 150 638 91 q 562 -12 378 -12 q 260 -12 175 30 q 154 41 106 68 q 86 81 69 81 q 60 81 41 69 z"}}}
